<svg xmlns="http://www.w3.org/2000/svg" viewBox="0 0 32 32">
  <rect width="32" height="32" rx="6" fill="#0a0a0a"/>
  <path d="M8 12c0-1 .5-2 1.5-2.5C11 8.5 13 8 16 8s5 .5 6.5 1.5c1 .5 1.5 1.5 1.5 2.5v8c0 1-.5 2-1.5 2.5C21 23.5 19 24 16 24s-5-.5-6.5-1.5C8.5 22 8 21 8 20v-8z" fill="none" stroke="#00f0ff" stroke-width="1.5"/>
  <circle cx="16" cy="16" r="3" fill="#00f0ff"/>
  <line x1="16" y1="13" x2="16" y2="8" stroke="#00f0ff" stroke-width="1"/>
  <line x1="16" y1="19" x2="16" y2="24" stroke="#00f0ff" stroke-width="1"/>
</svg>
